<?xml version="1.0" standalone="no"?>
<!DOCTYPE svg PUBLIC "-//W3C//DTD SVG 20010904//EN"
 "http://www.w3.org/TR/2001/REC-SVG-20010904/DTD/svg10.dtd">
<svg version="1.0" xmlns="http://www.w3.org/2000/svg"
 width="1024.000000pt" height="1024.000000pt" viewBox="0 0 1024.000000 1024.000000"
 preserveAspectRatio="xMidYMid meet">

<g transform="translate(0.000000,1024.000000) scale(0.100000,-0.100000)"
fill="#000000" stroke="none">
<path d="M4985 8684 c-922 -58 -1785 -454 -2387 -1097 -472 -504 -773 -1085
-907 -1752 -186 -918 5 -1883 524 -2660 362 -541 829 -950 1410 -1235 726
-356 1501 -447 2290 -269 873 196 1648 736 2162 1504 87 131 212 349 263 460
174 382 287 809 321 1214 15 175 6 588 -16 741 -83 588 -285 1111 -610 1575
-211 302 -504 604 -791 817 -503 373 -1115 615 -1724 683 -139 15 -428 26
-535 19z m458 -399 c421 -44 744 -145 1165 -364 67 -35 120 -66 118 -69 -3 -3
-52 -13 -108 -23 -347 -59 -551 -95 -768 -134 -135 -24 -380 -67 -545 -96
-165 -28 -320 -55 -345 -59 -44 -8 -49 -6 -260 108 -118 63 -236 127 -261 141
l-46 25 -114 -43 c-572 -219 -1003 -543 -1338 -1005 -164 -226 -255 -401 -367
-701 l-45 -120 1 -478 1 -477 106 -203 c58 -111 131 -245 162 -297 l56 -95 3
-703 c2 -477 -1 -701 -8 -697 -18 11 -205 257 -278 365 -97 144 -170 274 -246
437 -156 334 -234 590 -293 966 -28 174 -25 621 6 817 91 596 308 1093 677
1555 111 140 327 355 469 469 501 402 1059 627 1715 689 101 10 417 5 543 -8z
m-781 -865 c220 -43 266 -61 408 -157 71 -48 142 -96 157 -105 27 -16 36 -15
178 7 83 13 176 26 208 30 l57 7 0 -436 0 -437 -42 30 c-24 16 -164 120 -313
230 -148 111 -351 261 -450 334 l-180 132 -145 -3 -144 -4 -171 -79 c-93 -44
-354 -171 -580 -284 -225 -112 -410 -203 -411 -202 -8 7 198 241 306 348 201
199 378 322 652 454 156 75 338 154 355 155 7 0 58 -9 115 -20z m2338 -510
l-1 -489 30 -60 c64 -125 135 -312 190 -500 l31 -104 0 -580 0 -581 -117 -211
c-98 -177 -201 -354 -264 -452 -9 -15 -138 -85 -355 -193 l-342 -170 -286 118
c-157 64 -286 120 -286 124 0 8 21 17 375 178 484 219 770 352 781 363 11 11
23 163 39 487 3 63 10 279 15 480 8 361 8 366 -15 470 -28 128 -64 255 -117
420 -43 133 -58 163 -58 114 0 -64 -167 -822 -266 -1209 -15 -59 -19 -66 -25
-45 -4 14 -22 77 -39 140 -18 63 -56 192 -86 287 l-54 172 2 803 3 803 230 37
c462 74 541 85 578 87 l37 1 0 -490z m622 152 c95 -122 258 -365 277 -410 12
-29 12 -48 -3 -140 -67 -421 -162 -719 -451 -1412 -42 -102 -79 -187 -81 -190
-6 -5 4 393 17 695 9 230 17 326 84 1020 19 204 38 417 42 474 6 97 7 102 22
83 9 -11 51 -65 93 -120z m-2817 -586 c99 -71 199 -144 222 -161 l42 -32 -77
-12 c-42 -7 -154 -32 -249 -56 l-172 -44 -538 -270 c-296 -149 -546 -276 -555
-283 -18 -14 -34 -92 -153 -768 -72 -405 -131 -719 -137 -725 -2 -3 -63 79
-136 181 l-132 185 2 662 3 662 155 83 c85 46 283 149 440 230 157 80 431 222
610 314 l325 168 85 -3 85 -2 180 -129z m556 -435 c169 -43 306 -119 427 -235
102 -98 159 -176 213 -290 100 -213 116 -465 43 -683 -101 -305 -351 -547
-654 -634 -92 -26 -324 -37 -422 -20 -299 52 -553 242 -688 516 -76 154 -94
238 -95 425 0 131 4 168 23 239 103 377 408 646 797 701 90 13 269 4 356 -19z
m2904 -572 c16 -141 17 -494 2 -604 -3 -22 -8 -69 -12 -105 -24 -246 -122
-603 -241 -879 -66 -154 -173 -350 -267 -491 -161 -242 -425 -535 -637 -707
-86 -70 -330 -245 -385 -277 l-30 -17 -145 77 c-80 42 -171 89 -202 105 l-57
30 -213 -85 c-333 -132 -644 -226 -968 -292 -74 -15 -137 -29 -139 -31 -6 -5
23 -25 159 -110 179 -111 177 -102 15 -103 -425 -1 -824 83 -1230 260 -134 59
-260 121 -290 143 -20 15 -20 15 5 21 14 3 120 19 235 36 700 104 1196 204
1824 368 l184 48 -59 24 c-248 99 -873 361 -990 416 -39 18 -100 41 -135 50
-52 14 -75 27 -119 69 -30 28 -156 141 -280 251 -276 244 -630 572 -630 584 0
12 75 354 135 615 25 110 53 233 62 273 9 39 19 72 22 72 3 0 51 -134 105
-297 54 -164 125 -375 158 -469 l59 -171 71 -59 c465 -387 483 -400 663 -488
359 -176 931 -439 1220 -561 l159 -68 76 39 c41 21 127 73 190 115 395 261
686 582 960 1059 167 293 522 1061 650 1410 l24 65 17 -85 c10 -47 25 -151 34
-231z m-4280 -2130 c98 -94 104 -98 330 -213 127 -65 234 -121 238 -125 4 -4
-57 -13 -135 -20 -179 -15 -917 -71 -940 -71 -17 0 -18 29 -18 472 l0 472 213
-209 c116 -116 257 -253 312 -306z"/>
<path d="M4987 5704 c-31 -7 -85 -28 -120 -45 -217 -107 -339 -305 -338 -547
0 -160 57 -295 174 -418 146 -154 365 -217 571 -164 205 52 355 189 435 395
29 73 40 238 22 312 -58 237 -222 412 -438 468 -71 19 -228 18 -306 -1z"/>
</g>
</svg>
